<svg viewBox="0 0 214 228" fill="#7C82FF" xmlns="http://www.w3.org/2000/svg"><path d="m39.375 227.707 14.137-47.617-41.102 11.64c26.914-19.335 54.031-38.261 80.664-58.378l-14.867-7.586 37.148-19.489-.148-.359c-6.109 2.168-12.258 4.242-18.324 6.523-7.793 2.938-15.516 6.067-23.297 9.039a2.62 2.62 0 0 1-2.105-.222 297 297 0 0 1-37.325-30.992c-.246-.247-.453-.535-.797-.954a435.5 435.5 0 0 0 63.34 6.211c-8.996-1.718-17.984-3.476-26.988-5.148a2467 2467 0 0 0-25.148-4.543c-4.82-.851-9.66-1.59-14.481-2.434-.578-.101-1.297-.417-1.617-.87C18.62 68.722 9.059 54.733 1.14 39.702.789 39.035.5 38.336 0 37.273l83.95 34.16.124-.265c-3.476-1.848-6.949-3.711-10.43-5.547-13.902-7.328-27.812-14.648-41.699-22.012a3.5 3.5 0 0 1-1.527-1.625c-5.59-13.82-11.125-27.66-16.664-41.507-.035-.086.039-.22.098-.477 5.617 3.512 11.199 6.988 16.77 10.48 24.51 15.36 49.022 30.715 73.515 46.11 1.211.762 2.297 1.777 3.304 2.812 7.93 8.117 15.887 16.223 23.727 24.43 8.176 8.563 16.234 17.234 24.336 25.856.207.214.387.449.601.703-18.343 11.933-37.835 21.875-55.578 34.664l65.223-32.2-32.512-34.242 7.473-5.703c5.539-4.226 11.062-8.476 16.625-12.68 4.258-3.218 9.195-4.738 14.383-5.585 10.312-1.696 18.441 2.378 25.312 9.667 1.496 1.586 2.801 3.352 4.281 4.95.543.586 1.286 1.07 2.032 1.363 3.187 1.238 6.406 2.383 9.703 3.973-2.567.883-5.078 1.992-7.703 2.597-6.43 1.477-12.203 4.137-17.231 8.461-1.66 1.426-2.867 2.988-3.566 5.098-3.418 10.301-6.785 20.625-10.449 30.836-3.516 9.777-10.25 17.129-18.325 23.453-8.742 6.848-18.699 10.676-29.492 12.754-9.031 1.738-18.094 1.504-27.183.902-1.875-.121-3.746-.344-5.617-.359-.5 0-1.153.488-1.481.937-6.434 8.805-12.644 17.786-19.281 26.43-10.746 13.988-21.77 27.762-32.68 41.617-.094.121-.273.172-.652.391z" fill="#5E8BFF"/></svg>