<svg width="64" height="64" viewBox="0 0 64 64" fill="none" xmlns="http://www.w3.org/2000/svg"><path d="m11.829 61.666 3.619-12.19-10.522 2.98c6.89-4.95 13.832-9.795 20.65-14.945l-3.806-1.942 9.51-4.989-.038-.092c-1.564.555-3.138 1.086-4.691 1.67-1.995.752-3.972 1.553-5.964 2.314a.67.67 0 0 1-.539-.057 76 76 0 0 1-9.555-7.934c-.063-.063-.116-.137-.204-.244a111.5 111.5 0 0 0 16.215 1.59c-2.303-.44-4.604-.89-6.909-1.318q-3.215-.598-6.438-1.163c-1.234-.218-2.473-.407-3.707-.623-.148-.026-.332-.107-.414-.223-2.52-3.534-4.968-7.115-6.995-10.963-.09-.171-.164-.35-.292-.622L23.24 21.66l.032-.068c-.89-.473-1.779-.95-2.67-1.42-3.559-1.876-7.12-3.75-10.675-5.635a.9.9 0 0 1-.391-.416C8.105 10.583 6.688 7.04 5.27 3.495c-.009-.022.01-.056.025-.122 1.438.899 2.867 1.789 4.293 2.683 6.275 3.932 12.55 7.863 18.82 11.804.31.195.588.455.846.72 2.03 2.078 4.067 4.153 6.074 6.254 2.093 2.192 4.156 4.412 6.23 6.619.053.055.099.115.154.18-4.696 3.055-9.686 5.6-14.228 8.874l16.697-8.243-8.323-8.766 1.913-1.46c1.418-1.082 2.832-2.17 4.256-3.246 1.09-.824 2.354-1.213 3.682-1.43 2.64-.434 4.721.609 6.48 2.475.383.406.717.858 1.096 1.267.139.15.329.274.52.349.816.317 1.64.61 2.484 1.017-.657.226-1.3.51-1.972.665-1.646.378-3.124 1.059-4.411 2.166-.425.365-.734.765-.913 1.305-.875 2.637-1.737 5.28-2.675 7.894-.9 2.503-2.624 4.385-4.691 6.004-2.238 1.753-4.787 2.733-7.55 3.265-2.312.445-4.632.385-6.959.231-.48-.031-.959-.088-1.438-.092-.128 0-.295.125-.379.24-1.647 2.254-3.237 4.553-4.936 6.766-2.751 3.581-5.573 7.107-8.366 10.654-.024.031-.07.044-.167.1z" fill="#5E8BFF"/><path d="M38.023 5.522c2.39 3.077 3.83 6.575 4.868 10.263.036.124-.056.366-.164.435-.61.392-1.242.748-1.891 1.13-.39-1.158-.758-2.329-1.178-3.48-.931-2.556-2.056-5.015-3.814-7.13-.776-.934-1.694-1.688-2.915-1.97-1.597-.367-2.921.172-4.082 1.25-1.785 1.66-2.966 3.72-3.927 5.924-.202.464-.397.93-.603 1.416l-2.1-1.35c.915-2.277 1.886-4.495 3.64-6.445-.48.113-.828.184-1.17.277a32.2 32.2 0 0 0-6.958 2.792c-.251.137-.43.135-.67-.014-.658-.408-1.334-.786-2.055-1.204.133-.095.236-.173.344-.242 3.667-2.325 7.641-3.852 11.93-4.528 2.37-.373 4.76-.36 7.154-.236 3.526.185 6.856 1.114 10.076 2.511.154.067.389.06.546-.006 2.207-.944 4.27-.027 4.717 2.64.05.3.142.499.376.692 2.76 2.287 5.336 4.756 7.369 7.733 2.317 3.393 3.856 7.111 4.532 11.175.096.58.184 1.162.295 1.738.022.12.104.255.201.327 1.867 1.374 1.955 3.558.17 5.03-.314.258-.437.517-.505.915-.549 3.215-1.477 6.31-2.945 9.238a31.8 31.8 0 0 1-7.559 9.764c-.278.243-.407.482-.41.864-.014 1.645-.825 2.864-2.172 3.204-.775.195-1.577.162-2.311-.218-.252-.131-.437-.109-.678.012-2.809 1.397-5.73 2.483-8.82 3.054-2.435.45-4.89.596-7.37.42-4.391-.316-8.487-1.6-12.36-3.652-.082-.042-.161-.09-.268-.15l1.547-1.974 7.062 2.72c-.71-1.164-1.418-2.156-1.95-3.235-.64-1.298-1.136-2.668-1.679-4.013-.054-.136-.066-.353.007-.463.53-.798 1.087-1.58 1.639-2.372.359 1.041.696 2.077 1.074 3.099.752 2.03 1.694 3.96 3.145 5.594.915 1.031 2 1.804 3.414 2.004 1.586.225 2.887-.379 4.026-1.407 1.793-1.619 2.873-3.702 3.797-5.887 1.224-2.895 1.88-5.946 2.508-9.004.032-.16.084-.354.197-.452.966-.846 1.947-1.674 2.962-2.539-.203.968-.401 1.922-.605 2.874-.382 1.8-.776 3.596-1.138 5.399-.032.163.077.422.207.54a326 326 0 0 0 4.075 3.623c.103.09.27.132.413.151.49.063.983.119 1.477.15.115.007.263-.066.354-.148 3.627-3.284 6.495-7.107 8.247-11.71a25 25 0 0 0 1.458-5.833c.015-.12-.065-.277-.15-.378a19 19 0 0 0-1.067-1.211.77.77 0 0 0-.497-.209c-1.725-.014-3.45-.009-5.176-.01h-3.965c.266-.778.494-1.492.767-2.189.04-.104.285-.184.435-.185 2.58-.009 5.162-.014 7.742.008.391.003.597-.102.78-.458.171-.334.426-.691.74-.869.433-.244.408-.562.358-.926-.783-5.773-3.248-10.718-7.383-14.812-1.168-1.157-2.443-2.205-3.652-3.32-.228-.211-.403-.182-.654-.086-1.505.575-2.98.156-3.71-1.105-.238-.413-.295-.929-.452-1.392-.047-.14-.122-.34-.23-.378-1.766-.607-3.54-1.193-5.312-1.782-.027-.008-.06.005-.101.009zm.621 52.592c.073.005.122.02.163.009a36.7 36.7 0 0 0 6.294-2.458.46.46 0 0 0 .213-.262c.151-.543.282-1.092.44-1.714l-3.248-2.822c-.97 2.611-2.031 5.125-3.861 7.247M3.964 20.819c.536.92 1.066 1.822 1.58 2.732.047.085.013.231-.014.341-.388 1.574-.775 3.149-1.181 4.718-.072.277.032.382.231.56.398.353.767.756 1.068 1.194.15.216.265.28.504.28 1.927-.007 3.854-.008 5.781.01.212.002.458.085.626.213.718.543 1.414 1.114 2.115 1.68.126.102.23.231.438.444h-3.07c-1.958 0-3.917.005-5.875-.006-.297-.002-.448.094-.62.35a5.7 5.7 0 0 1-.99 1.088c-.216.186-.302.335-.25.612.771 4.092 2.202 7.918 4.546 11.38.111.165.215.335.339.531L7.005 48.59c-.596-.989-1.2-1.923-1.738-2.895a29.8 29.8 0 0 1-3.48-10.407c-.07-.491-.255-.848-.673-1.178-1.523-1.203-1.476-3.57.09-4.704.387-.28.516-.596.588-1.013a39 39 0 0 1 2.068-7.445c.015-.04.056-.069.106-.126z" fill="currentColor"/></svg>