<svg width="64" height="64" viewBox="0 0 64 64" fill="none" xmlns="http://www.w3.org/2000/svg"><path d="M30.845 55.453c-.908-.152-1.83-.262-2.731-.464-1.896-.427-3.774-.935-5.672-1.348-1.225-.266-2.47-.433-3.713-.615-.196-.029-.431.067-.621.161-5.324 2.628-10.643 5.263-15.963 7.896-.073.036-.147.065-.22.097l-.084-.117 12.826-10.906-.002-.083-13.971 3.02c.634-.335 1.309-.694 1.984-1.05a342 342 0 0 0 23.27-13.442c2.43-1.535 4.875-3.07 6.97-5.058 1.378-1.307 2.667-2.71 3.95-4.112 1.255-1.376 2.518-2.738 4.245-3.527 2.848-1.303 5.636-1.04 8.34.443.593.326 1.105.803 1.707 1.11.622.317 1.3.53 1.965.754.82.277 1.654.517 2.523.785-.743.676-1.456 1.33-2.175 1.975-1.988 1.787-2.888 4.043-2.982 6.686-.14 3.932-1.064 7.64-3.405 10.88-2.423 3.353-5.695 5.475-9.704 6.42-1.375.324-2.795.453-4.24.678v5.912c2.16-.143 4.053-.918 5.746-2.223 1.424-1.099 2.59-2.438 3.666-3.866.139-.183.319-.345.507-.478 1.258-.886 2.523-1.76 3.7-2.579-.152 1.019-2.642 4.788-4.901 7.306 3.384-.643 10.603-5.855 13.02-9.415-1.48-1.064-3.136-1.73-4.89-2.232l1.073-2c1.829.608 3.64 1.334 5.241 2.463 2.086-3.062 3.516-6.407 4.353-10a25.6 25.6 0 0 0 .676-5.47H54.77l-.07-.103q.744-.674 1.491-1.343c.1-.088.216-.157.316-.244.512-.446 1.074-.658 1.782-.612.99.063 1.987.016 3.048.016-.17-5.936-2.021-11.267-5.372-16.105-2.14 1.166-4.39 1.94-6.67 2.627l1.476 6.685c-.872-.36-1.618-.653-2.346-.985-.122-.055-.2-.274-.24-.431-.378-1.515-.742-3.033-1.114-4.55-.017-.068-.064-.13-.096-.194-4.548 1.026-9.156 1.424-13.865 1.502v.471c0 3.524-.004 7.047.007 10.57.001.312-.09.523-.32.726-.648.568-1.267 1.168-1.92 1.73a.97.97 0 0 1-.586.21q-6.31.02-12.621.009c-.294 0-.48.042-.607.357-.295.73-.837 1.256-1.553 1.58-.234.105-.283.23-.275.468.07 2.136.28 4.255.733 6.345.056.26.008.43-.25.573-.557.304-1.092.646-1.683 1.002-.727-2.722-.986-5.466-1.112-8.244-.943-.295-1.573-.941-2.001-1.82-.056-.114-.227-.247-.345-.247-2.616-.012-5.233-.006-7.849-.002-.026 0-.052.022-.112.048.21 5.17 1.683 9.965 4.4 14.423l-2.111 1.08c-.511-.982-1.033-1.921-1.498-2.888a31.6 31.6 0 0 1-3.051-16.16c.395-5.332 1.943-10.293 4.851-14.78C9.897 7.528 16.42 2.823 24.852.82a30 30 0 0 1 8.782-.766c6.62.395 12.613 2.557 17.87 6.646 5.764 4.485 9.541 10.283 11.347 17.354.497 1.95.798 3.943.843 5.96.033 1.453.082 2.913-.017 4.361-.194 2.812-.824 5.543-1.776 8.196-1.754 4.885-4.562 9.072-8.345 12.618-4.165 3.904-8.985 6.599-14.55 7.938-2.754.662-5.543.983-8.369.839-6.168-.315-11.767-2.28-16.776-5.905l-.314-.228c.801-.37 1.577-.742 2.367-1.079.1-.042.292.081.418.164 2.227 1.452 4.595 2.603 7.247 3.4a21.5 21.5 0 0 1-3.908-4.962c.926.144 1.78.264 2.63.418a.8.8 0 0 1 .446.288c1.362 1.744 2.872 3.32 4.851 4.379a10 10 0 0 0 3.247 1.064zm.003-36.135c-4.69-.094-9.302-.496-13.928-1.556-.437 2.065-.911 4.045-1.259 6.047-.25 1.44-.327 2.91-.489 4.367-.03.276.075.403.331.522a2.9 2.9 0 0 1 1.554 1.687c.107.295.26.387.577.386 3.33-.018 6.66-.018 9.99-.022h3.224zM2.59 30.697c.07.046.083.061.094.061 2.644.006 5.288.013 7.932.006.092 0 .232-.12.268-.216.348-.901.944-1.557 1.83-1.953a.46.46 0 0 0 .22-.315c.05-.47.04-.95.1-1.419.215-1.655.396-3.316.691-4.957.279-1.546.684-3.069 1.036-4.612-2.273-.67-4.555-1.399-6.723-2.545-3.328 4.808-5.147 10.117-5.45 15.95zm30.54-13.642c2.24-.147 4.435-.236 6.617-.448 2.188-.212 4.364-.546 6.573-.83-.036-.165-.043-.237-.068-.303-1.352-3.463-3.133-6.661-5.739-9.358-2.018-2.09-4.424-3.356-7.382-3.546v14.484m-15.47-1.504c2.132.73 11.501 1.682 13.182 1.366V2.545c-.165.027-.295.058-.427.07-2.13.184-3.988 1.017-5.62 2.375-2.02 1.68-3.618 3.715-4.874 6.007-.81 1.48-1.507 3.024-2.261 4.553m16.418 20.802 7.876 5.114c-.012.032-.015.065-.034.086-1.378 1.556-2.755 3.115-4.14 4.664a.7.7 0 0 1-.372.196c-1.441.246-2.885.48-4.328.713l-6.3 1.013q-2.952.475-5.904.956c-.532.086-1.063.183-1.594.275.426.092.839.123 1.25.169 1.209.131 2.417.253 3.621.407 1.57.2 3.117.36 4.713.047 2.939-.579 5.903-1.032 8.86-1.525.436-.074.782-.231 1.094-.57 1.29-1.399 2.614-2.764 3.914-4.153.83-.885 1.639-1.79 2.457-2.685-.059-.056-.078-.08-.103-.097-3.018-1.982-6.036-3.965-9.063-5.933-.098-.064-.34-.023-.445.059-.5.391-.974.815-1.503 1.266zM9.496 12.903c1.404.802 4.083 1.767 6.025 2.172 1.567-4.077 3.64-7.848 6.83-10.927-5.146 1.668-9.378 4.651-12.855 8.754m32.246-8.764c.865 1.008 1.77 1.972 2.57 3.015 1.767 2.3 3.047 4.872 4.06 7.58.116.306.227.414.57.293 1.151-.404 2.327-.741 3.47-1.168.706-.264 1.369-.646 2.108-1.002-3.555-4.112-7.782-6.996-12.778-8.72zM46 32.143c.813.01 1.547-.706 1.553-1.514.006-.799-.686-1.505-1.489-1.52-.892-.015-1.573.633-1.581 1.504A1.51 1.51 0 0 0 46 32.142" fill="currentColor"/></svg>