<svg width="64" height="64" viewBox="0 0 64 64" fill="none" xmlns="http://www.w3.org/2000/svg"><path d="M45.597 55.25c-1.826.771-3.555.501-5.194-.602-1.516-1.021-2.538-2.464-3.427-4.016-.497-.866-.966-1.748-1.49-2.699 1.07 3.927 2.44 7.636 4.695 11.004-3.297-.402-4.513-1.385-5.756-4.831.032.43.032.866.1 1.292.336 2.082-.472 3.787-1.732 5.347-.25.309-.509.609-.782.935-.983-1.038-1.826-2.145-2.345-3.468-.53-1.352-.207-2.743-.17-4.149-.803 2.895-2.52 4.695-5.706 4.828 2.157-3.407 3.698-7.062 4.704-10.949-.245.476-.462.969-.74 1.424-.705 1.152-1.361 2.346-2.178 3.415-.963 1.26-2.144 2.298-3.755 2.724-1.199.317-2.343.204-3.502-.28 3.554-3.646 6.195-7.94 9.037-12.107-1.16-1.764-2.019-3.663-2.483-5.724-.46-2.042-.743-4.107-.76-6.22-.047.216-.104.43-.14.649-.336 2.033-.23 4.082-.201 6.128.002.13-.051.302-.142.387-1.246 1.157-2.702 1.77-4.422 1.606-.594-.057-1.18-.21-1.784-.38 1.198-1.244 2.45-2.397 3.192-3.88-.687.55-1.393 1.174-2.161 1.71-1.04.724-2.21 1.098-3.492.997-.755-.06-1.446-.333-2.137-.77 1.935-1.306 3.547-2.943 5.123-4.63q-.406.271-.817.538c-1.117.72-2.236 1.43-3.533 1.802-1.719.493-3.337.331-4.833-.695a2.3 2.3 0 0 1-.27-.223c-.074-.07-.138-.15-.171-.188l6.34-3.428-.062-.128c-.17.068-.336.139-.506.203-1.276.479-2.571.907-3.932 1.033-1.843.17-3.574-.124-4.926-1.536-.308-.321-.526-.729-.85-1.19 2.468-.32 4.797-.752 7.069-1.466-.933 0-1.869.053-2.796-.013-1.416-.1-2.825-.31-4.136-.898-1.52-.682-2.529-1.833-2.993-3.444a2 2 0 0 1-.052-.237c-.005-.03.015-.065.026-.104 2.786.522 5.566 1.044 8.436 1.072-.625-.155-1.233-.285-1.83-.457-2.07-.598-4.02-1.464-5.772-2.729C.985 19.922.238 18.559.009 16.91c-.019-.138-.003-.28-.003-.477 2.783 1.389 5.616 2.558 8.57 3.467-.777-.467-1.55-.909-2.3-1.385-1.968-1.25-3.662-2.788-4.899-4.786-.899-1.453-1.085-3.024-.74-4.676.003-.018.027-.032.06-.07 2.487 2.777 5.285 5.175 8.552 7.005-.096-.08-.195-.158-.286-.244-2.025-1.914-3.84-3.996-5.139-6.484-.602-1.151-.998-2.355-.876-3.688.095-1.038.424-1.967 1.138-2.802.086.169.16.307.227.446 1.1 2.233 2.56 4.228 4.065 6.194 2.554 3.337 5.453 6.36 8.433 9.309 1.499 1.483 2.95 3.015 4.46 4.485 1.148 1.117 2.357 2.173 3.593 3.306.235-.713.466-1.34.648-1.98.322-1.137.6-2.287.922-3.425.708-2.494 2.474-3.812 4.938-4.193 1.583-.244 3 .38 4.28 1.288 1.201.852 1.677 2.127 2.029 3.485.409 1.58.86 3.15 1.318 4.819.5-.426.925-.75 1.31-1.117 1.796-1.714 3.601-3.418 5.368-5.163 1.867-1.844 3.74-3.684 5.522-5.61 1.412-1.527 2.712-3.159 4.02-4.779 1.548-1.918 2.994-3.91 4.148-6.097.164-.31.326-.62.506-.964.563.766.927 1.575 1.083 2.509.282 1.68-.33 3.11-1.12 4.51-1.254 2.22-2.928 4.104-4.745 5.872-.041.04-.096.066-.116.131 3.158-1.78 5.868-4.102 8.281-6.843.251.694.238 1.373.193 2.06-.12 1.82-1.108 3.207-2.246 4.515-1.567 1.8-3.537 3.064-5.624 4.166a2 2 0 0 0-.294.181c2.984-.856 5.824-2.074 8.609-3.432l.106.045c-.069.424-.106.855-.213 1.269-.436 1.681-1.523 2.863-2.975 3.73-1.939 1.156-4 2.02-6.222 2.468-.187.038-.374.07-.559.118 2.87-.017 5.677-.535 8.562-1.088-.083.278-.137.518-.225.745-.732 1.875-2.144 2.965-4.045 3.486-1.613.441-3.26.556-4.924.507-.407-.012-.814-.002-1.15-.002 2.33.658 4.784 1.12 7.308 1.433-.294.802-.801 1.364-1.437 1.815-.89.632-1.9.906-2.982.958-1.872.09-3.612-.442-5.326-1.103q-.113-.047-.227-.087c-.019-.005-.043.01-.11.099l6.259 3.397c-.222.175-.465.402-.74.576-1.486.943-3.063.965-4.7.457-1.457-.453-2.708-1.283-3.966-2.106-.055-.035-.11-.072-.213-.056.388.406.768.82 1.166 1.216q.599.592 1.224 1.157a31 31 0 0 0 1.3 1.127c.435.351.892.675 1.342 1.014-1.073.802-2.627 1.017-4.022.531-1.337-.466-2.44-1.307-3.47-2.252-.107-.098-.176-.238-.264-.358l-.145.125c.501.676.978 1.372 1.51 2.024.54.662 1.135 1.279 1.705 1.914-.331.086-.799.259-1.28.32-1.46.183-2.828-.091-4.065-.92-.029-.02-.061-.034-.09-.053-.617-.407-.917-.88-.871-1.718.084-1.536-.034-3.086-.1-4.629-.02-.457-.146-.91-.22-1.345-.061.82-.11 1.658-.189 2.493-.3 3.179-1.093 6.207-2.805 8.94-.197.315-.184.523.028.823 1.973 2.792 3.898 5.618 5.906 8.385.848 1.169 1.86 2.22 2.82 3.351zM31.964 27.457c.416-1.126 1.325-1.645 2.337-2.143l-2.308-2.043c-.408.35-.794.67-1.169 1.003-.38.338-.747.689-1.142 1.054.985.494 1.87 1.006 2.282 2.129m-2.894-3.354c.229-.762-.755-2.066-1.416-2.218-.306.54-.32 1.09.027 1.607.32.474.771.73 1.39.61m5.837-.005c.63.16 1.217-.28 1.43-.73q.352-.738.013-1.503c-.972.465-1.584 1.424-1.443 2.233m-2.9 25.344c-.231 1.93-.413 3.862-.012 5.794.443-1.93.253-3.862.012-5.794" fill="#25D0A4"/><path d="M40.04 5.513c.464.748.953 1.482 1.386 2.247a32.5 32.5 0 0 1 3.64 9.832.5.5 0 0 0 .03.1c.143.357.057.63-.263.858-.253.181-.474.409-.717.624-.527-2.566-1.12-5.092-2.153-7.489-.86-1.997-1.84-3.933-3.196-5.645a5.7 5.7 0 0 0-1.327-1.23c-.391-.253-.907-.322-1.373-.45-.963-.262-1.947-.362-2.942-.36-.114 0-.228.01-.393.018v11.075h-1.444V3.976c-.744.046-1.441.071-2.133.14-.438.044-.866.183-1.303.23-.913.098-1.572.625-2.142 1.267-1.335 1.506-2.3 3.25-3.13 5.07-.37.812-.677 1.653-.998 2.486-.033.085 0 .247.064.309.539.52.762 1.129.577 1.87-.194.774-.726 1.208-1.468 1.376-.222.05-.276.129-.32.321-.155.701-.33 1.399-.505 2.128-.328-.295-.657-.571-.958-.874-.069-.068-.07-.233-.055-.348q.042-.328.137-.646c.153-.505.168-.904-.281-1.352-.487-.486-.483-1.196-.208-1.84.27-.637.764-1.028 1.464-1.09.23-.021.292-.141.352-.311.811-2.265 1.85-4.42 3.175-6.43.163-.25.331-.495.541-.808-4.164 1.502-7.83 3.641-10.855 6.788l-1.18-1.158C22.885-.598 41.04-.606 51.875 11.068l-1.097 1.266C47.48 8.99 42.868 6.067 40.043 5.51zm5.905 40.4-2.035 4.961c-.332-.402-.602-.704-.836-1.03-.053-.074-.01-.244.033-.353.443-1.147.895-2.29 1.344-3.435.03-.075.047-.154.089-.293-.486-.068-.951-.16-1.42-.192-.955-.066-1.912-.097-2.869-.151-.091-.005-.215-.051-.263-.12-.302-.426-.586-.865-.942-1.398l5.876.528c.186-.804.385-1.612.552-2.427.057-.274.123-.463.442-.51.32-.05.629-.16 1.042-.268l-.727 3.371c2.212.51 4.431 1.01 6.641 1.543.34.082.5.033.7-.253 1.595-2.288 2.882-4.726 3.675-7.411a30 30 0 0 0 .965-4.744c.012-.098.121-.207.213-.267.467-.306.944-.599 1.496-.944-.18 4.479-1.417 8.612-3.626 12.443-2.226 3.863-5.322 6.93-8.996 9.454l-1.178-1.104c2.342-1.746 4.516-3.665 6.45-5.99l-6.627-1.412zM17.794 44.7l-.785-3.463c.486.125.88.216 1.265.333.069.021.13.143.153.228.21.798.42 1.594.605 2.397.053.226.147.277.36.252.95-.116 1.9-.233 2.852-.322.86-.08 1.723-.126 2.65-.19-.314.498-.59.953-.889 1.392-.047.07-.201.085-.308.093-1.327.1-2.655.193-3.981.291-.077.006-.152.042-.276.079.28.771.542 1.523.826 2.268.19.499.42.983.612 1.481.037.096.025.258-.035.336-.235.303-.499.586-.823.957L18.08 45.9c-2.12.45-4.303.916-6.486 1.38l-.019.132c1.793 2.25 3.977 4.088 6.235 5.862-.388.369-.761.72-1.159 1.098-3.458-2.269-6.298-5.242-8.51-8.792-2.476-3.973-3.776-8.333-4.05-13.05.576.354 1.102.672 1.62 1.002.062.04.11.145.118.224.331 3.146 1.187 6.14 2.688 8.925.612 1.137 1.363 2.199 2.04 3.3.13.21.255.218.486.165 2.128-.486 4.261-.95 6.393-1.419.1-.022.207-.016.358-.027" fill="currentColor"/></svg>