<svg xmlns="http://www.w3.org/2000/svg" viewBox="0 0 64 59.36"><path d="M45.6 52.93c-1.83.77-3.56.5-5.19-.6-1.52-1.02-2.54-2.46-3.43-4.02-.5-.87-.97-1.75-1.49-2.7 1.07 3.93 2.44 7.64 4.69 11-3.3-.4-4.51-1.38-5.76-4.83.03.43.03.87.1 1.29.34 2.08-.47 3.79-1.73 5.35-.25.31-.51.61-.78.94-.98-1.04-1.83-2.15-2.34-3.47-.53-1.35-.21-2.74-.17-4.15-.8 2.9-2.52 4.69-5.71 4.83 2.16-3.41 3.7-7.06 4.7-10.95-.25.48-.46.97-.74 1.42-.7 1.15-1.36 2.35-2.18 3.42-.96 1.26-2.14 2.3-3.76 2.72-1.2.32-2.34.2-3.5-.28 3.55-3.65 6.19-7.94 9.04-12.11-1.16-1.76-2.02-3.66-2.48-5.72-.46-2.04-.74-4.11-.76-6.22-.05.22-.1.43-.14.65-.34 2.03-.23 4.08-.2 6.13 0 .13-.05.3-.14.39-1.25 1.16-2.7 1.77-4.42 1.61-.59-.06-1.18-.21-1.78-.38 1.2-1.24 2.45-2.4 3.19-3.88-.69.55-1.39 1.17-2.16 1.71-1.04.72-2.21 1.1-3.49 1-.76-.06-1.45-.33-2.14-.77 1.94-1.31 3.55-2.94 5.12-4.63-.27.18-.54.36-.82.54-1.12.72-2.24 1.43-3.53 1.8-1.72.49-3.34.33-4.83-.69a2 2 0 0 1-.44-.41l6.34-3.43-.06-.13c-.17.07-.34.14-.51.2-1.28.48-2.57.91-3.93 1.03-1.84.17-3.57-.12-4.93-1.54-.31-.32-.53-.73-.85-1.19 2.47-.32 4.8-.75 7.07-1.47-.93 0-1.87.05-2.8-.01-1.42-.1-2.82-.31-4.14-.9-1.52-.68-2.53-1.83-2.99-3.44-.02-.08-.04-.16-.05-.24 0-.03.01-.07.03-.1 2.79.52 5.57 1.04 8.44 1.07-.62-.16-1.23-.28-1.83-.46-2.07-.6-4.02-1.46-5.77-2.73C.99 17.6.24 16.24 0 14.59c-.02-.14 0-.28 0-.48 2.78 1.39 5.62 2.56 8.57 3.47-.78-.47-1.55-.91-2.3-1.39-1.97-1.25-3.66-2.79-4.9-4.79C.47 9.95.28 8.38.63 6.72c0-.02.03-.03.06-.07 2.49 2.78 5.29 5.18 8.55 7.01-.1-.08-.19-.16-.29-.24-2.03-1.91-3.84-4-5.14-6.48-.6-1.15-1-2.36-.88-3.69.1-1.04.42-1.97 1.14-2.8.09.17.16.31.23.45 1.1 2.23 2.56 4.23 4.06 6.19 2.55 3.34 5.45 6.36 8.43 9.31 1.5 1.48 2.95 3.01 4.46 4.49 1.15 1.12 2.36 2.17 3.59 3.31.24-.71.47-1.34.65-1.98.32-1.14.6-2.29.92-3.42.71-2.49 2.47-3.81 4.94-4.19 1.58-.24 3 .38 4.28 1.29 1.2.85 1.68 2.13 2.03 3.49.41 1.58.86 3.15 1.32 4.82.5-.43.92-.75 1.31-1.12 1.8-1.71 3.6-3.42 5.37-5.16 1.87-1.84 3.74-3.68 5.52-5.61 1.41-1.53 2.71-3.16 4.02-4.78 1.55-1.92 2.99-3.91 4.15-6.1.16-.31.33-.62.51-.96.56.77.93 1.58 1.08 2.51.28 1.68-.33 3.11-1.12 4.51-1.25 2.22-2.93 4.1-4.74 5.87-.04.04-.1.07-.12.13 3.16-1.78 5.87-4.1 8.28-6.84.25.69.24 1.37.19 2.06-.12 1.82-1.11 3.21-2.25 4.51-1.57 1.8-3.54 3.06-5.62 4.17-.1.05-.2.11-.29.18 2.98-.86 5.82-2.07 8.61-3.43l.11.05c-.07.42-.11.85-.21 1.27-.44 1.68-1.52 2.86-2.97 3.73-1.94 1.16-4 2.02-6.22 2.47-.19.04-.37.07-.56.12 2.87-.02 5.68-.53 8.56-1.09-.08.28-.14.52-.22.75-.73 1.88-2.14 2.97-4.05 3.49-1.61.44-3.26.56-4.92.51-.41-.01-.81 0-1.15 0 2.33.66 4.78 1.12 7.31 1.43-.29.8-.8 1.36-1.44 1.82-.89.63-1.9.91-2.98.96-1.87.09-3.61-.44-5.33-1.1-.08-.03-.15-.06-.23-.09-.02 0-.04.01-.11.1l6.26 3.4c-.22.17-.47.4-.74.58-1.49.94-3.06.97-4.7.46-1.46-.45-2.71-1.28-3.97-2.11-.06-.03-.11-.07-.21-.06.39.41.77.82 1.17 1.22.4.39.81.78 1.22 1.16.42.39.86.76 1.3 1.13.44.35.89.67 1.34 1.01-1.07.8-2.63 1.02-4.02.53-1.34-.47-2.44-1.31-3.47-2.25-.11-.1-.18-.24-.26-.36l-.15.12c.5.68.98 1.37 1.51 2.02.54.66 1.13 1.28 1.71 1.91-.33.09-.8.26-1.28.32-1.46.18-2.83-.09-4.06-.92-.03-.02-.06-.03-.09-.05-.62-.41-.92-.88-.87-1.72.08-1.54-.03-3.09-.1-4.63-.02-.46-.15-.91-.22-1.34-.06.82-.11 1.66-.19 2.49-.3 3.18-1.09 6.21-2.81 8.94-.2.31-.18.52.03.82 1.97 2.79 3.9 5.62 5.91 8.39.85 1.17 1.86 2.22 2.82 3.35ZM31.96 25.14c.42-1.13 1.33-1.65 2.34-2.14l-2.31-2.04c-.41.35-.79.67-1.17 1-.38.34-.75.69-1.14 1.05.99.49 1.87 1.01 2.28 2.13m-2.89-3.36c.23-.76-.75-2.07-1.42-2.22-.31.54-.32 1.09.03 1.61.32.47.77.73 1.39.61m5.84 0c.63.16 1.22-.28 1.43-.73.23-.49.24-.99.01-1.5-.97.47-1.58 1.42-1.44 2.23m-2.9 25.34c-.23 1.93-.41 3.86-.01 5.79.44-1.93.25-3.86.01-5.79" style="fill:#4abd9c"/><path d="M40.04 3.19c.46.75.95 1.48 1.39 2.25 1.74 3.06 2.97 6.38 3.64 9.83 0 .03.02.07.03.1.14.36.06.63-.26.86-.25.18-.47.41-.72.62-.53-2.57-1.12-5.09-2.15-7.49-.86-2-1.84-3.93-3.2-5.64-.37-.48-.82-.89-1.33-1.23-.39-.25-.91-.32-1.37-.45-.96-.26-1.95-.36-2.94-.36-.11 0-.23.01-.39.02v11.07H31.3V1.66c-.74.05-1.44.07-2.13.14-.44.04-.87.18-1.3.23-.91.1-1.57.62-2.14 1.27-1.33 1.51-2.3 3.25-3.13 5.07-.37.81-.68 1.65-1 2.49-.03.09 0 .25.06.31.54.52.76 1.13.58 1.87-.19.77-.73 1.21-1.47 1.38-.22.05-.28.13-.32.32-.16.7-.33 1.4-.5 2.13-.33-.3-.66-.57-.96-.87-.07-.07-.07-.23-.06-.35.03-.22.07-.43.14-.65.15-.5.17-.9-.28-1.35-.49-.49-.48-1.2-.21-1.84s.76-1.03 1.46-1.09c.23-.02.29-.14.35-.31.81-2.27 1.85-4.42 3.17-6.43.16-.25.33-.49.54-.81-4.16 1.5-7.83 3.64-10.85 6.79L12.07 8.8C22.89-2.9 41.05-2.91 51.88 8.76l-1.1 1.27c-3.3-3.34-7.91-6.27-10.74-6.82Zm5.91 40.4-2.03 4.96c-.33-.4-.6-.7-.84-1.03-.05-.07 0-.24.03-.35.44-1.15.9-2.29 1.34-3.44.03-.08.05-.15.09-.29-.49-.07-.95-.16-1.42-.19-.96-.07-1.91-.1-2.87-.15-.09 0-.22-.05-.26-.12-.3-.43-.59-.87-.94-1.4l5.88.53c.19-.8.38-1.61.55-2.43.06-.27.12-.46.44-.51s.63-.16 1.04-.27l-.73 3.37c2.21.51 4.43 1.01 6.64 1.54.34.08.5.03.7-.25 1.6-2.29 2.88-4.73 3.67-7.41.45-1.55.77-3.14.97-4.74.01-.1.12-.21.21-.27.47-.31.94-.6 1.5-.94-.18 4.48-1.42 8.61-3.63 12.44-2.23 3.86-5.32 6.93-9 9.45l-1.18-1.1c2.34-1.75 4.52-3.67 6.45-5.99l-6.63-1.41Zm-28.16-1.21-.78-3.46c.49.12.88.22 1.26.33.07.02.13.14.15.23.21.8.42 1.59.6 2.4.05.23.15.28.36.25.95-.12 1.9-.23 2.85-.32.86-.08 1.72-.13 2.65-.19-.31.5-.59.95-.89 1.39-.05.07-.2.08-.31.09-1.33.1-2.66.19-3.98.29-.08 0-.15.04-.28.08.28.77.54 1.52.83 2.27.19.5.42.98.61 1.48.04.1.02.26-.03.34-.24.3-.5.59-.82.96l-1.94-4.93c-2.12.45-4.3.92-6.49 1.38l-.02.13c1.79 2.25 3.98 4.09 6.23 5.86l-1.16 1.1c-3.46-2.27-6.3-5.24-8.51-8.79-2.48-3.97-3.78-8.33-4.05-13.05.58.35 1.1.67 1.62 1 .06.04.11.15.12.22.33 3.15 1.19 6.14 2.69 8.92.61 1.14 1.36 2.2 2.04 3.3.13.21.26.22.49.17 2.13-.49 4.26-.95 6.39-1.42.1-.02.21-.02.36-.03" style="fill:#9aa2b4"/></svg>